<svg width="104" height="89" viewBox="0 0 104 89" fill="none" xmlns="http://www.w3.org/2000/svg">
<path fill-rule="evenodd" clip-rule="evenodd" d="M103.589 36.1446L103.566 36.185C103.825 36.3424 104 36.6246 104 36.9503V47.5791C104 47.8996 103.829 48.1959 103.551 48.3561L101.849 49.3376C101.941 49.7635 102 50.2157 102.018 50.6943C102.094 52.6948 101.485 54.9236 100.301 56.9705C98.337 60.3697 95.3375 62.4187 92.7149 62.4187C91.9199 62.4187 91.1598 62.2305 90.4734 61.8346C88.9733 60.9693 88.1582 59.3019 88.0541 57.2904L61.4636 72.6245C62.0326 74.8316 61.5492 77.727 59.9588 80.4786C57.9944 83.8778 54.9948 85.9267 52.3723 85.9267C51.5772 85.9267 50.8172 85.7385 50.1308 85.3427C48.6558 84.4919 47.7985 82.8377 47.7168 80.6845C47.7157 80.6564 47.7155 80.6282 47.7152 80.5999C47.715 80.5802 47.7148 80.5604 47.7143 80.5407L33.0141 88.8816C32.8771 88.9596 32.724 89 32.5697 89C32.4155 89 32.2606 88.9603 32.1211 88.88L0.449068 70.6148C0.171095 70.4547 0 70.1584 0 69.8379V52.2897C0 52.1807 3.51844 31.1442 3.51844 31.1442L3.51979 31.1444C3.56358 30.8806 3.72277 30.6467 3.95988 30.5117L23.3158 19.4932V0.897177C23.3158 0.401711 23.718 0 24.2139 0C24.7099 0 25.1121 0.401711 25.1121 0.897177V19.5031L46.4066 31.7857L54.9879 26.936V19.1624C54.9879 18.6669 55.39 18.2652 55.886 18.2652C56.382 18.2652 56.7841 18.6669 56.7841 19.1624V25.9208L71.0256 17.8722C71.3025 17.7159 71.6415 17.7172 71.917 17.8763L103.589 36.1446ZM75.4494 43.1675L93.9142 32.6362L79.1412 24.1155L79.2115 24.2384L60.8186 34.73L75.4494 43.1675ZM71.4635 19.6868L77.4823 23.1584L58.5696 33.9465C58.2903 34.1058 58.1176 34.4023 58.1167 34.7235C58.1161 35.0446 58.2872 35.3418 58.5658 35.5027L74.9979 44.9791C75.1369 45.0592 75.2918 45.0993 75.4469 45.0993C75.6005 45.0993 75.7543 45.0601 75.8922 44.9813L95.6435 33.7164L95.5732 33.5935L101.323 36.9099L56.7841 62.5577V27.9827L71.4635 19.6868ZM36.8956 50.1228L36.185 54.567L54.9881 43.8661V39.8264L36.8956 50.1228ZM42.0864 53.2737V64.0414L33.9167 68.753L35.8217 56.8389L42.0864 53.2737ZM54.9879 36.7356V28.9979L48.2119 32.8273L54.9879 36.7356ZM24.2052 21.0523L54.0751 38.281L36.0797 48.522L6.20971 31.2962L24.2052 21.0523ZM35.0924 50.0246L5.07851 32.7156L4.27108 37.576L34.3126 54.9012L35.0924 50.0246ZM7.94288 72.8647L1.79627 69.32V64.8973L7.94288 68.5899V72.8647ZM9.73938 73.9007L23.7296 81.9688V74.9991L9.73938 66.931V73.9007ZM31.6725 86.5496L25.5259 83.0048V78.7753L31.6725 82.4688V86.5496ZM25.5259 76.6813L31.6725 80.3748V71.0742L1.79627 53.8439V62.8035L7.94311 66.4961V65.3771C7.94311 65.0566 8.1142 64.7603 8.39217 64.6001C8.66992 64.44 9.01234 64.44 9.29031 64.6001L25.0768 73.704C25.3548 73.8642 25.5259 74.1605 25.5259 74.481V76.6813ZM32.0255 69.2056L1.90292 51.8331L3.95696 39.4668L34.0092 56.7981L32.0255 69.2056ZM33.4688 86.5603L47.9137 78.3642C48.1775 77.0413 48.6931 75.6893 49.4334 74.4083C50.6162 72.3614 52.2438 70.7196 54.0161 69.7849C54.3421 69.6131 54.6663 69.4702 54.9879 69.3523V45.9314L43.8827 52.2514V64.5595C43.8827 64.8801 43.7116 65.1761 43.4336 65.3365L33.4688 71.0834V86.5603ZM58.403 79.5814C56.4152 83.021 53.0382 84.9475 51.0287 83.7887C50.1076 83.2576 49.569 82.1312 49.5115 80.6168C49.4482 78.9496 49.9729 77.0635 50.9889 75.3055C52.0049 73.5477 53.378 72.1506 54.8547 71.3718C55.6258 70.9652 56.3654 70.7602 57.0296 70.7602C57.5211 70.7602 57.9717 70.8723 58.3633 71.0982C60.3729 72.2571 60.3911 76.1419 58.403 79.5814ZM56.7844 68.9696C57.6791 68.9257 58.5196 69.1163 59.2616 69.5443C59.8706 69.8955 60.3652 70.3807 60.7472 70.9656L73.8894 63.3869V54.7787L56.7844 64.6288V68.9696ZM98.7459 56.0731C96.7581 59.5127 93.3809 61.4389 91.3716 60.2805C89.3622 59.1215 89.344 55.2365 91.3318 51.7972C92.3478 50.0394 93.7208 48.6423 95.1976 47.8635C95.9687 47.4569 96.7083 47.2519 97.3724 47.2519C97.8639 47.2519 98.3146 47.364 98.7062 47.5899C99.6272 48.121 100.166 49.2476 100.223 50.7621C100.287 52.429 99.7619 54.3153 98.7459 56.0731ZM101.201 47.639L102.204 47.0605V38.4732L75.6854 53.7443V62.3509L88.196 55.1365C88.4367 53.7613 88.9603 52.3119 89.7762 50.9C90.9591 48.8531 92.5867 47.2113 94.359 46.2766C96.2666 45.2709 98.1296 45.1857 99.6043 46.0362C100.266 46.4177 100.802 46.9619 101.201 47.639Z" fill="#1D3864"/>
</svg>
