<svg width="66" height="84" viewBox="0 0 66 84" fill="none" xmlns="http://www.w3.org/2000/svg">
<path d="M63.2817 24.3671L63.2823 24.3665L58.6088 21.6658C58.7189 21.2445 58.8855 20.8068 59.1159 20.3666C60.6942 17.3516 60.6942 13.9403 59.1159 12.7468L55.5349 10.0395C55.4309 9.96168 42.2494 2.35285 42.2494 2.35285V2.35407C40.679 1.60261 38.3997 3.03865 36.9326 5.78367L31.6907 2.75594V2.75655C30.9702 2.28598 30.0084 2.29935 28.9511 2.90976L23.8867 5.83413C21.6548 7.12243 19.8455 10.5794 19.8455 13.5548C19.8455 16.2652 17.388 19.0418 15.9501 17.9554C14.3724 16.7619 11.8135 18.2393 10.2358 21.2542L6.65479 28.097C5.07648 31.112 5.07648 34.5233 6.65479 35.7162C8.09205 36.8032 7.07429 40.6682 5.04122 41.8415H5.04061C2.80934 43.1305 1 46.5868 1 49.5628V56.3156C1 57.9414 1.5411 59.0856 2.39531 59.5805L2.3947 59.5811L7.16124 62.3346C7.05058 62.7553 6.88461 63.1931 6.65479 63.632V63.6326C5.07648 66.6476 5.07648 70.059 6.65479 71.2518L23.427 81.5977L23.4277 81.5971C24.9993 82.4532 27.34 81.0159 28.8368 78.2168L34.2162 81.3254V81.3235C34.919 81.7084 35.8273 81.6616 36.8189 81.0889L41.8834 78.1651C44.1153 76.8768 45.9246 73.4199 45.9246 70.4444C45.9246 67.7334 48.3821 64.9574 49.8199 66.0439C51.3976 67.2373 53.956 65.76 55.5343 62.7444L59.1153 55.9022C60.6936 52.8873 60.6936 49.4759 59.1153 48.2825C57.678 47.196 58.6958 43.3311 60.7288 42.1577C62.9607 40.8688 64.7701 37.4124 64.7701 34.4364V27.6836C64.7701 25.9989 64.1901 24.8304 63.2817 24.3671V24.3671Z" stroke="#1D3864" stroke-width="2"/>
<path d="M60.7294 24.6291C58.6964 25.8025 57.678 23.1134 59.1153 20.3666H59.1159C60.6936 17.3516 60.6936 13.9402 59.1159 12.7474L55.5343 10.0401C53.9566 8.84661 51.3982 10.324 49.8199 13.339V13.3396C48.382 16.0858 45.9246 16.1478 45.9246 13.4368C45.9246 10.4614 44.1153 9.09345 41.884 10.3818L36.8189 13.3061C34.5877 14.5944 32.7783 18.0514 32.7783 21.0268C32.7783 23.7378 30.3209 26.5138 28.883 25.4274C27.3047 24.2345 24.7463 25.7113 23.168 28.7268L19.587 35.569C18.0093 38.584 18.0093 41.9953 19.587 43.1888C21.0249 44.2752 20.0065 48.1401 17.9735 49.3135C15.7416 50.6024 13.9329 54.0588 13.9329 57.0348V63.7876C13.9329 66.7631 15.7416 68.131 17.9735 66.8421C20.0065 65.6687 21.0243 68.3578 19.587 71.1046C18.0093 74.1196 18.0093 77.531 19.587 78.7238L23.168 81.4311C24.7463 82.6246 27.3047 81.1472 28.883 78.1322V78.1316C30.3209 75.3854 32.7783 75.324 32.7783 78.0344C32.7783 81.0098 34.5877 82.3777 36.8189 81.0894L41.884 78.1651C44.1153 76.8768 45.9246 73.4198 45.9246 70.4444C45.9246 67.734 48.3826 64.9574 49.8199 66.0438C51.3982 67.2373 53.9566 65.7599 55.5343 62.745L59.1159 55.9022C60.6936 52.8872 60.6936 49.4759 59.1159 48.283C57.678 47.196 58.6964 43.331 60.7294 42.1576C62.9613 40.8693 64.77 37.4124 64.77 34.437V27.6842C64.77 24.7081 62.9607 23.3402 60.7294 24.6291V24.6291Z" stroke="#1D3864" stroke-width="2"/>
<path d="M53.8076 37.3893C53.8076 48.0344 47.3351 60.4006 39.3517 65.0103C31.3678 69.62 24.8953 64.727 24.8953 54.0819C24.8953 43.4363 31.3678 31.07 39.3517 26.4609C47.3351 21.8513 53.8076 26.7443 53.8076 37.3893Z" stroke="#1D3864" stroke-width="2"/>
<path d="M48.5037 40.4516C48.5037 47.1911 44.4059 55.02 39.3518 57.9383C34.2971 60.856 30.2 57.7589 30.2 51.0195C30.2 44.2801 34.2971 36.4512 39.3518 33.5329C44.4059 30.6146 48.5037 33.7122 48.5037 40.4516Z" stroke="#1D3864" stroke-width="2"/>
</svg>
