<svg width="80" height="80" viewBox="0 0 80 80" fill="none" xmlns="http://www.w3.org/2000/svg">
<path fill-rule="evenodd" clip-rule="evenodd" d="M79.733 11.2001L75.733 5.86674C75.2483 5.27757 74.3778 5.19307 73.7887 5.67774C73.7197 5.73441 73.6563 5.79774 73.5997 5.86674L69.5997 11.2001C69.4265 11.4309 69.333 11.7116 69.333 12.0001V74.6667C69.333 77.6122 71.7208 80.0001 74.6663 80.0001C77.6118 80.0001 79.9997 77.6122 79.9997 74.6667V12.0001C79.9997 11.7116 79.9062 11.4309 79.733 11.2001ZM77.333 74.6667C77.333 76.1396 76.1392 77.3334 74.6663 77.3334C73.1935 77.3334 71.9997 76.1396 71.9997 74.6667V72.0001H77.333V74.6667ZM71.9997 66.6667V69.3334H77.333V66.6667H71.9997ZM77.333 16.0001V64.0001H71.9997V16.0001H77.333ZM71.9997 12.4441V13.3334H77.333V12.4441L74.6663 8.88941L71.9997 12.4441Z" fill="#FFB700"/>
<path fill-rule="evenodd" clip-rule="evenodd" d="M65.3333 0H65.3387C66.075 0 66.672 0.597 66.672 1.33333V68C66.672 68.0055 66.6714 68.0109 66.6704 68.0162C66.6689 68.0244 66.6665 68.0325 66.664 68.0406L66.664 68.0407L66.664 68.0407C66.66 68.054 66.656 68.0674 66.656 68.0813C66.6483 68.1995 66.625 68.316 66.5867 68.428C66.5824 68.4405 66.5784 68.4528 66.5745 68.4649L66.5659 68.4913C66.5591 68.5115 66.5519 68.5316 66.5427 68.552C66.4778 68.697 66.3875 68.8293 66.276 68.9427L55.6093 79.6093C55.359 79.8588 55.0202 79.9992 54.6667 80H6.66667C2.98667 79.9957 0.00433333 77.0133 0 73.3333V30.6667C0.004 27.4998 2.2315 24.7713 5.33333 24.1333V1.33333C5.33333 0.597 5.93033 0 6.66667 0H65.3333ZM36 77.3333C38.2092 77.3333 40 75.5425 40 73.3333V30.6667C40 28.4575 38.2092 26.6667 36 26.6667H6.66667C4.4575 26.6667 2.66667 28.4575 2.66667 30.6667V73.3333C2.66667 75.5425 4.4575 77.3333 6.66667 77.3333H36ZM22.6667 16V24H13.3333V16H22.6667ZM13.3333 8V13.3333H22.6667V8H13.3333ZM34.6667 16V24H25.3333V16H34.6667ZM25.3333 8V13.3333H34.6667V8H25.3333ZM37.3333 24.1333V16H46.6667V34.6667H42.6667V30.6667C42.6627 27.4998 40.4352 24.7713 37.3333 24.1333ZM37.3333 8V13.3333H46.6667V8H37.3333ZM56 75.448V69.3333H62.1147L56 75.448ZM54.6667 66.6667H64V2.66667H8V24H10.6667V6.66667C10.6667 5.93033 11.2637 5.33333 12 5.33333H60C60.7363 5.33333 61.3333 5.93033 61.3333 6.66667V36C61.3333 36.7363 60.7363 37.3333 60 37.3333H42.6667V73.3333C42.6618 74.7807 42.181 76.1862 41.2987 77.3333H53.3333V68C53.3333 67.2637 53.9303 66.6667 54.6667 66.6667ZM58.6667 16V34.6667H49.3333V16H58.6667ZM49.3333 8V13.3333H58.6667V8H49.3333Z" fill="#0057AA"/>
<path fill-rule="evenodd" clip-rule="evenodd" d="M6.66634 30.6667H35.9997C36.736 30.6667 37.333 31.2637 37.333 32.0001V40.0001C37.333 40.7364 36.736 41.3334 35.9997 41.3334H6.66634C5.93001 41.3334 5.33301 40.7364 5.33301 40.0001V32.0001C5.33301 31.2637 5.93001 30.6667 6.66634 30.6667ZM7.99967 38.6667H34.6663V33.3334H7.99967V38.6667Z" fill="#0057AA"/>
<path fill-rule="evenodd" clip-rule="evenodd" d="M29.3333 54.6667H37.3333C38.0697 54.6667 38.6667 55.2637 38.6667 56.0001V72.0001C38.6667 72.7364 38.0697 73.3334 37.3333 73.3334H29.3333C28.597 73.3334 28 72.7364 28 72.0001V56.0001C28 55.2637 28.597 54.6667 29.3333 54.6667ZM30.6667 70.6667H36V57.3334H30.6667V70.6667Z" fill="#FFB700"/>
<path fill-rule="evenodd" clip-rule="evenodd" d="M29.3333 44H37.3333C38.0697 44 38.6667 44.597 38.6667 45.3333V50.6667C38.6667 51.403 38.0697 52 37.3333 52H29.3333C28.597 52 28 51.403 28 50.6667V45.3333C28 44.597 28.597 44 29.3333 44ZM30.6667 49.3333H36V46.6667H30.6667V49.3333Z" fill="#0057AA"/>
<path fill-rule="evenodd" clip-rule="evenodd" d="M17.3333 54.6667H25.3333C26.0697 54.6667 26.6667 55.2637 26.6667 56.0001V61.3334C26.6667 62.0697 26.0697 62.6667 25.3333 62.6667H17.3333C16.597 62.6667 16 62.0697 16 61.3334V56.0001C16 55.2637 16.597 54.6667 17.3333 54.6667ZM18.6667 60.0001H24V57.3334H18.6667V60.0001Z" fill="#0057AA"/>
<path fill-rule="evenodd" clip-rule="evenodd" d="M17.3333 44H25.3333C26.0697 44 26.6667 44.597 26.6667 45.3333V50.6667C26.6667 51.403 26.0697 52 25.3333 52H17.3333C16.597 52 16 51.403 16 50.6667V45.3333C16 44.597 16.597 44 17.3333 44ZM18.6667 49.3333H24V46.6667H18.6667V49.3333Z" fill="#0057AA"/>
<path fill-rule="evenodd" clip-rule="evenodd" d="M5.33333 54.6667H13.3333C14.0697 54.6667 14.6667 55.2637 14.6667 56.0001V61.3334C14.6667 62.0697 14.0697 62.6667 13.3333 62.6667H5.33333C4.597 62.6667 4 62.0697 4 61.3334V56.0001C4 55.2637 4.597 54.6667 5.33333 54.6667ZM6.66667 60.0001H12V57.3334H6.66667V60.0001Z" fill="#0057AA"/>
<path fill-rule="evenodd" clip-rule="evenodd" d="M5.33333 44H13.3333C14.0697 44 14.6667 44.597 14.6667 45.3333V50.6667C14.6667 51.403 14.0697 52 13.3333 52H5.33333C4.597 52 4 51.403 4 50.6667V45.3333C4 44.597 4.597 44 5.33333 44ZM6.66667 49.3333H12V46.6667H6.66667V49.3333Z" fill="#0057AA"/>
<path fill-rule="evenodd" clip-rule="evenodd" d="M17.3333 65.3333H25.3333C26.0697 65.3333 26.6667 65.9303 26.6667 66.6666V71.9999C26.6667 72.7363 26.0697 73.3333 25.3333 73.3333H17.3333C16.597 73.3333 16 72.7363 16 71.9999V66.6666C16 65.9303 16.597 65.3333 17.3333 65.3333ZM18.6667 70.6666H24V67.9999H18.6667V70.6666Z" fill="#0057AA"/>
<path fill-rule="evenodd" clip-rule="evenodd" d="M5.33333 65.3333H13.3333C14.0697 65.3333 14.6667 65.9303 14.6667 66.6666V71.9999C14.6667 72.7363 14.0697 73.3333 13.3333 73.3333H5.33333C4.597 73.3333 4 72.7363 4 71.9999V66.6666C4 65.9303 4.597 65.3333 5.33333 65.3333ZM6.66667 70.6666H12V67.9999H6.66667V70.6666Z" fill="#0057AA"/>
</svg>
