<svg width="93" height="118" viewBox="0 0 93 118" fill="none" xmlns="http://www.w3.org/2000/svg">
<path fill-rule="evenodd" clip-rule="evenodd" d="M23.4783 0H67.3043C69.8975 0 72 2.14922 72 4.8V81.6C72 83.3672 70.5983 84.8 68.8696 84.8H65.7391V88C65.7338 92.4164 62.2334 95.9945 57.913 96H7.82609C3.50569 95.9945 0.00534987 92.4164 0 88V14.4C0.00534987 9.98359 3.50569 6.40547 7.82609 6.4H16.5693L22.364 0.473438C22.5 0.339062 22.659 0.230469 22.8332 0.153906C22.8775 0.134375 22.9234 0.117969 22.9693 0.103906C23.1053 0.0546876 23.2467 0.025 23.3904 0.0179688C23.4041 0.0168891 23.4175 0.0129909 23.4309 0.00910013C23.4466 0.00454498 23.4622 0 23.4783 0ZM21.913 5.4625L18.324 9.13125L14.7351 12.8H21.913V5.4625ZM62.6087 88C62.6087 90.6508 60.5062 92.8 57.913 92.8H7.82609C5.23293 92.8 3.13043 90.6508 3.13043 88V14.4C3.13043 11.7492 5.23293 9.6 7.82609 9.6H13.4389L9.84986 13.2688C9.71841 13.4047 9.61294 13.5633 9.53652 13.7375C9.52101 13.7737 9.50991 13.8096 9.49858 13.8462L9.49856 13.8462L9.49855 13.8463C9.49426 13.8601 9.48993 13.8741 9.48531 13.8883C9.44022 14.0203 9.41347 14.1594 9.40506 14.2992C9.40506 14.3168 9.40009 14.3332 9.39513 14.3496C9.39016 14.366 9.38519 14.3824 9.38519 14.4V81.6C9.38519 83.3672 10.7869 84.8 12.5156 84.8H62.6087V88ZM12.5217 16V81.6H68.8696V4.8C68.8696 3.91641 68.1687 3.2 67.3043 3.2H25.0435V12.8C25.0435 14.5672 23.6418 16 21.913 16H12.5217Z" fill="#0057AA"/>
<path d="M17.2178 72H26.6091V75.2H17.2178V72Z" fill="#FFB700"/>
<path d="M32.8691 9.59998H48.5213V12.8H32.8691V9.59998Z" fill="#FFB700"/>
<path d="M36 16H45.3913V19.2H36V16Z" fill="#FFB700"/>
<path fill-rule="evenodd" clip-rule="evenodd" d="M17.2176 22.4H64.1741C65.0385 22.4 65.7393 23.1164 65.7393 24V72C65.7393 72.8836 65.0385 73.6 64.1741 73.6H51.6523C50.788 73.6 50.0871 72.8836 50.0871 72V67.2H17.2176C16.3532 67.2 15.6523 66.4836 15.6523 65.6V24C15.6523 23.1164 16.3532 22.4 17.2176 22.4ZM53.2176 64H62.6089V60.8H53.2176V64ZM50.0871 35.2V38.4H28.1741V35.2H50.0871ZM53.2176 38.4H62.6089V35.2H53.2176V38.4ZM62.6089 44.8H53.2176V41.6H62.6089V44.8ZM53.2176 51.2H62.6089V48H53.2176V51.2ZM18.7828 48H25.0436V51.2H18.7828V48ZM25.0436 41.6H18.7828V44.8H25.0436V41.6ZM28.1741 41.6H50.0871V44.8H28.1741V41.6ZM50.0871 48H28.1741V51.2H50.0871V48ZM25.0436 38.4H18.7828V35.2H25.0436V38.4ZM25.0436 54.4H18.7828V57.6H25.0436V54.4ZM28.1741 54.4H50.0871V57.6H28.1741V54.4ZM62.6089 54.4H53.2176V57.6H62.6089V54.4ZM18.7828 25.6H62.6089V32H18.7828V25.6ZM18.7828 60.8V64H25.0436V60.8H18.7828ZM28.1741 64V60.8H50.0871V64H28.1741ZM62.6089 67.2H53.2176V70.4H62.6089V67.2Z" fill="#0057AA"/>
<path d="M66 118C80.9117 118 93 105.912 93 91C93 76.0883 80.9117 64 66 64C51.0883 64 39 76.0883 39 91C39 105.912 51.0883 118 66 118Z" fill="#0057AA"/>
<path d="M53.1983 89.4705C52.7044 88.8112 53.1749 87.871 53.9987 87.871H57.1579C57.4619 87.871 57.7494 88.0092 57.9391 88.2467L63.2286 94.8659C63.6514 95.395 64.4668 95.3596 64.8422 94.7959L75.0643 79.4457C75.2497 79.1673 75.5621 79 75.8966 79H79.1159C79.9177 79 80.3935 79.8963 79.9441 80.5604L64.8701 102.837C64.485 103.406 63.6537 103.426 63.2416 102.876L53.1983 89.4705Z" fill="#FFB700"/>
</svg>
