<svg width="91" height="91" viewBox="0 0 91 91" fill="none" xmlns="http://www.w3.org/2000/svg">
<path fill-rule="evenodd" clip-rule="evenodd" d="M0 73.3708C0 83.0917 7.9059 91 17.6237 91C27.3416 91 35.2475 83.0917 35.2475 73.3708C35.2475 70.8752 34.7078 68.4347 33.7102 66.2014L40.1257 62.4579C40.9663 61.9676 41.2499 60.8878 40.7597 60.047C40.2689 59.2062 39.1901 58.9218 38.3496 59.4121L31.9603 63.1411C31.1858 62.0537 30.2867 61.0497 29.2747 60.1544C31.0756 57.0714 33.4851 52.4403 33.4851 48.8663C33.4851 40.1178 26.3695 33 17.6237 33C8.79535 33 1.6598 40.2225 1.76375 49.0556V49.0797C1.83259 51.7654 3.24662 55.4793 5.97418 60.1538C2.20779 63.4854 0 68.3162 0 73.3708ZM17.6237 36.5258C24.4261 36.5258 29.9604 42.0618 29.9604 48.8663C29.9604 54.4415 21.0514 66.399 17.6237 70.7382C13.9847 66.1325 5.44271 54.6088 5.28781 49.0012C5.21415 42.1396 10.7629 36.5258 17.6237 36.5258ZM17.6237 75.31C17.1012 75.31 16.6056 75.078 16.2703 74.6765C13.9565 71.904 10.4641 67.2488 7.85771 63.2127C5.11777 65.8571 3.52475 69.533 3.52475 73.3708C3.52475 81.1476 9.84933 87.4742 17.6237 87.4742C25.3982 87.4742 31.7227 81.1476 31.7227 73.3708C31.7227 69.533 30.1297 65.8571 27.3898 63.2127C24.7841 67.2481 21.324 71.8641 18.9772 74.6765C18.6419 75.078 18.1463 75.31 17.6237 75.31Z" fill="#0057AA"/>
<path fill-rule="evenodd" clip-rule="evenodd" d="M25 49C25 52.8596 21.8596 56 18 56C14.1404 56 11 52.8596 11 49C11 45.1404 14.1404 42 18 42C21.8596 42 25 45.1404 25 49ZM21.5 49C21.5 47.0702 19.9298 45.5 18 45.5C16.0702 45.5 14.5 47.0702 14.5 49C14.5 50.9298 16.0702 52.5 18 52.5C19.9298 52.5 21.5 50.9298 21.5 49Z" fill="#FFB700"/>
<path fill-rule="evenodd" clip-rule="evenodd" d="M84.8957 27.6562C87.7667 22.7375 89.2195 18.8586 89.2195 16.0909C89.2195 7.21856 82.0309 0 73.1954 0C64.3598 0 57.1712 7.21856 57.1712 16.0909C57.1712 18.8586 58.6241 22.7375 61.4951 27.6562C57.6469 31.0372 55.3907 35.958 55.3907 41.1212C55.3907 43.8212 55.991 46.3829 57.0627 48.6799L50.8839 52.2996C50.0341 52.7969 49.7475 53.892 50.2427 54.7447C50.74 55.6002 51.8312 55.8845 52.6783 55.3886L58.8884 51.7507C62.1349 56.1457 67.3393 59 73.1954 59C83.013 59 91 50.9797 91 41.1212C91 35.958 88.7438 31.0372 84.8957 27.6562ZM73.1954 3.57576C80.0675 3.57576 85.6586 9.19012 85.6586 16.0909C85.6586 21.7632 76.716 33.7986 73.1954 38.2725C69.672 33.7965 60.7321 21.7618 60.7321 16.0909C60.7321 9.19012 66.3232 3.57576 73.1954 3.57576ZM58.9517 41.1212C58.9517 49.0081 65.3412 55.4242 73.1954 55.4242C81.0496 55.4242 87.4391 49.0081 87.4391 41.1212C87.4391 37.1914 85.8033 33.4368 82.9907 30.7508C80.4007 34.7645 76.967 39.3738 74.5627 42.2666C74.224 42.6737 73.7233 42.9091 73.1954 42.9091C72.6675 42.9091 72.1667 42.6737 71.828 42.2666C69.5357 39.5086 66.0332 34.8308 63.4007 30.7508C60.5875 33.4368 58.9517 37.1914 58.9517 41.1212Z" fill="#0057AA"/>
<path fill-rule="evenodd" clip-rule="evenodd" d="M80 16C80 19.8596 76.8596 23 73 23C69.1404 23 66 19.8596 66 16C66 12.1404 69.1404 9 73 9C76.8596 9 80 12.1404 80 16ZM76.5 16C76.5 14.0702 74.9298 12.5 73 12.5C71.0702 12.5 69.5 14.0702 69.5 16C69.5 17.9298 71.0702 19.5 73 19.5C74.9298 19.5 76.5 17.9298 76.5 16Z" fill="#FFB700"/>
<path d="M46 55C44.8961 55 44 55.8961 44 57C44 58.1039 44.8961 59 46 59C47.1039 59 48 58.1039 48 57C48 55.8961 47.1039 55 46 55Z" fill="#FFB700"/>
</svg>
